<?xml version="1.0" encoding="UTF-8" standalone="no"?>
<svg
   id="Layer_1"
   data-name="Layer 1"
   viewBox="0 0 405.37298 401.95215"
   version="1.1"
   sodipodi:docname="gt-logo.svg"
   inkscape:version="1.2.1 (9c6d41e, 2022-07-14)"
   width="405.37299"
   height="401.95215"
   xmlns:inkscape="http://www.inkscape.org/namespaces/inkscape"
   xmlns:sodipodi="http://sodipodi.sourceforge.net/DTD/sodipodi-0.dtd"
   xmlns="http://www.w3.org/2000/svg"
   xmlns:svg="http://www.w3.org/2000/svg">
  <sodipodi:namedview
     id="namedview41"
     pagecolor="#ffffff"
     bordercolor="#000000"
     borderopacity="0.25"
     inkscape:showpageshadow="2"
     inkscape:pageopacity="0.0"
     inkscape:pagecheckerboard="0"
     inkscape:deskcolor="#d1d1d1"
     showgrid="false"
     inkscape:zoom="0.72839506"
     inkscape:cx="135.22881"
     inkscape:cy="161.31356"
     inkscape:window-width="1920"
     inkscape:window-height="1027"
     inkscape:window-x="0"
     inkscape:window-y="25"
     inkscape:window-maximized="0"
     inkscape:current-layer="Layer_1" />
  <defs
     id="defs4">
    <style
       id="style2">.cls-1{fill:#aa985d;}.cls-2{fill:#002a4e;}</style>
  </defs>
  <rect
     style="fill:#ffffff;stroke-width:11.9622;paint-order:stroke fill markers"
     id="rect1683"
     width="404.99997"
     height="403.62711"
     x="0"
     y="0"
     ry="33.934822" />
  <path
     class="cls-1"
     d="m 281.66204,190.32915 v 0 a 4.11,4.11 0 0 0 0,8.21 4.11,4.11 0 0 0 0,-8.21 z m 0,7.57 a 3.47,3.47 0 0 1 0,-6.93 v 0 a 3.37,3.37 0 0 1 3.28,3.48 3.33,3.33 0 0 1 -3.28,3.5 z"
     id="path6" />
  <path
     class="cls-1"
     d="m 282.39204,194.56915 v 0 a 1.14,1.14 0 0 0 0.89,-1.11 1.08,1.08 0 0 0 -0.42,-0.95 2.37,2.37 0 0 0 -1.41,-0.34 7.6,7.6 0 0 0 -1.3,0.11 v 4.56 h 0.73 v -2 h 0.51 a 0.85,0.85 0 0 1 1,0.8 3.25,3.25 0 0 0 0.31,1.16 h 0.77 a 3.26,3.26 0 0 1 -0.29,-1.13 c -0.12,-0.66 -0.39,-1.02 -0.79,-1.1 z m -1,-0.29 h -0.53 v -1.54 a 3.26,3.26 0 0 1 0.53,0 c 0.82,0 1.11,0.4 1.11,0.8 0.02,0.52 -0.49,0.74 -1.09,0.74 z"
     id="path8" />
  <path
     class="cls-1"
     d="M 152.04204,56.769153 Z"
     id="path10" />
  <path
     class="cls-1"
     d="m 170.95204,101.55915 v 35.74 h 19.17 l 2,-10.72 h 8.63 c -3.16,16.35 -19.42,27.66 -40,27.66 -1.41,0 -2.84,-0.06 -4.26,-0.17 -11.41,-0.88 -21.9,-4.55 -29.55,-10.35 -8.43,-6.39 -12.87,-14.94 -12.82,-24.71 a 36.48,36.48 0 0 1 12.56,-27.409997 46.73,46.73 0 0 1 29,-11.34 c 0.69,0 1.39,0 2.08,0 a 60.08,60.08 0 0 1 37,13.53 9.8,9.8 0 0 0 0.77,0.62 8.19,8.19 0 0 1 0.73,0.59 l 0.3,0.25 h 22 v -38.5 h -22.31 v 11 c -9.39,-6 -25.46,-12.08 -44.21,-12.08 h -0.31 a 77.26,77.26 0 0 0 -54.500005,22.89 c -11.620002,11.83 -17.910002,26.269997 -17.720002,40.679997 0.2,15.5 7.66,29.94 21.000007,40.65 12.78,10.26 30.1,16.14 47.52,16.14 2.15,0 4.33,-0.09 6.48,-0.26 17.25,-1.4 32.54,-5.34 43.34,-11.13 v 4.77 h 23.69 v -42.81 h 8.18 v 49.65 h -12.35 v 22.32 h 55.1 v -22.32 h -12.35 v -49.67 h 27.9 l 2,10.72 h 19.26 v -35.74 z m -18.91,-44.789997 z"
     id="path12" />
  <path
     class="cls-2"
     d="m 99.822035,222.30915 a 27.11,27.11 0 0 1 8.500005,1.33 19,19 0 0 1 6.5,3.41 1.3,1.3 0 0 1 0.5,1 v 8.62 a 0.64,0.64 0 0 1 -0.72,0.72 h -6.45 a 0.64,0.64 0 0 1 -0.72,-0.72 v -4.23 a 0.69,0.69 0 0 0 -0.29,-0.58 13.48,13.48 0 0 0 -7.540005,-1.91 q -7.910002,0 -10.130002,6.54 -1.15,3.56 -1.15,11.17 c 0,5.42 0.31,9.1 0.94,11.07 a 9.13,9.13 0 0 0 3.41,4.78 11.47,11.47 0 0 0 6.570002,1.61 q 5.310005,0 8.000005,-1.72 a 1.3,1.3 0 0 0 0.72,-1.15 v -9.56 a 0.38,0.38 0 0 0 -0.43,-0.43 h -7.790005 a 0.63,0.63 0 0 1 -0.71,-0.72 v -5.74 a 0.63,0.63 0 0 1 0.71,-0.72 h 15.660005 a 0.64,0.64 0 0 1 0.72,0.72 v 20.61 a 2,2 0 0 1 -0.93,1.73 q -6.39,4.59 -16.090005,4.6 -14.450002,0 -18.180002,-11.43 -1.22,-3.66 -1.22,-13.65 0,-9.41 1.37,-13.5 3.8,-11.85 18.750002,-11.85 z"
     id="path14" />
  <path
     class="cls-2"
     d="m 137.72204,236.52915 a 15.65,15.65 0 0 1 9,2.55 13.14,13.14 0 0 1 5.18,7 35.88,35.88 0 0 1 1.15,10.42 c 0,0.48 -0.27,0.72 -0.79,0.72 h -21.29 a 0.38,0.38 0 0 0 -0.43,0.43 7.8,7.8 0 0 0 0.5,2.66 q 1.8,5.23 7.76,5.24 a 10.46,10.46 0 0 0 8.12,-3.3 c 0.38,-0.39 0.74,-0.43 1.08,-0.15 l 4.23,3.74 a 0.66,0.66 0 0 1 0.08,1 q -5,5.88 -14.23,5.89 a 16.11,16.11 0 0 1 -9.23,-2.55 13.06,13.06 0 0 1 -5.21,-7.08 27.79,27.79 0 0 1 -1.22,-8.48 28.13,28.13 0 0 1 1.15,-8.55 12.88,12.88 0 0 1 5.21,-7 15.77,15.77 0 0 1 8.94,-2.54 z m 0.07,6.82 q -5.31,0 -6.82,4.46 a 9.19,9.19 0 0 0 -0.43,2.94 0.38,0.38 0 0 0 0.43,0.44 h 13.58 a 0.39,0.39 0 0 0 0.43,-0.44 9.47,9.47 0 0 0 -0.43,-2.94 6.24,6.24 0 0 0 -2.52,-3.27 7.51,7.51 0 0 0 -4.24,-1.19 z"
     id="path16" />
  <path
     class="cls-2"
     d="m 173.43204,236.52915 a 15.91,15.91 0 0 1 9,2.51 12.88,12.88 0 0 1 5.21,7 32.36,32.36 0 0 1 0,17.1 12.81,12.81 0 0 1 -5.21,7 17.51,17.51 0 0 1 -18.1,0 12.81,12.81 0 0 1 -5.21,-7 32.36,32.36 0 0 1 0,-17.1 12.88,12.88 0 0 1 5.21,-7 16,16 0 0 1 9.1,-2.51 z m 0,7.18 c -3.41,0 -5.58,1.51 -6.54,4.53 a 22.27,22.27 0 0 0 -0.72,6.39 21.92,21.92 0 0 0 0.72,6.4 6.93,6.93 0 0 0 13,0 21.92,21.92 0 0 0 0.72,-6.4 22.27,22.27 0 0 0 -0.72,-6.39 q -1.44,-4.53 -6.46,-4.53 z"
     id="path18" />
  <path
     class="cls-2"
     d="m 214.63204,236.81915 a 15.74,15.74 0 0 1 3.37,0.36 c 0.48,0.09 0.72,0.33 0.72,0.71 v 6.26 c 0,0.62 -0.28,0.86 -0.86,0.71 a 28.22,28.22 0 0 0 -4.24,-0.57 q -7.76,0 -7.76,8.91 v 11.27 a 0.39,0.39 0 0 0 0.44,0.44 h 3.37 a 0.63,0.63 0 0 1 0.72,0.71 v 5.61 a 0.64,0.64 0 0 1 -0.72,0.72 h -15.35 a 0.64,0.64 0 0 1 -0.72,-0.72 v -5.61 a 0.63,0.63 0 0 1 0.72,-0.67 h 3.09 a 0.39,0.39 0 0 0 0.43,-0.44 v -19.72 a 0.38,0.38 0 0 0 -0.43,-0.43 h -3.09 a 0.64,0.64 0 0 1 -0.72,-0.72 v -5.6 a 0.64,0.64 0 0 1 0.72,-0.72 h 10.85 a 0.63,0.63 0 0 1 0.71,0.72 v 3.59 h 0.08 a 9.55,9.55 0 0 1 8.67,-4.81 z"
     id="path20" />
  <path
     class="cls-2"
     d="m 234.61204,236.52915 q 6.41,0 9,4.09 h 0.08 v -2.58 a 0.63,0.63 0 0 1 0.71,-0.72 h 10.85 a 0.64,0.64 0 0 1 0.72,0.72 v 5.6 a 0.64,0.64 0 0 1 -0.72,0.72 h -3.09 a 0.38,0.38 0 0 0 -0.43,0.43 v 25 q 0,7.54 -4.13,11.71 -4.13,4.17 -12,4.17 a 19.08,19.08 0 0 1 -7.15,-1.4 13.24,13.24 0 0 1 -5.42,-3.78 0.65,0.65 0 0 1 0.07,-1 l 4.22,-4.24 a 0.64,0.64 0 0 1 1.07,0 10.7,10.7 0 0 0 7.55,3.23 q 7.75,0 7.76,-8.26 v -3.27 h -0.08 q -2.58,4 -9,4 a 12.47,12.47 0 0 1 -7.4,-2.15 12.12,12.12 0 0 1 -4.38,-6.25 29.09,29.09 0 0 1 -1.15,-8.84 28.75,28.75 0 0 1 1.15,-8.76 q 2.72,-8.42 11.77,-8.42 z m 2.09,7.18 a 5.88,5.88 0 0 0 -6.11,4.39 17.49,17.49 0 0 0 -0.79,5.67 16.78,16.78 0 0 0 0.79,5.68 6.47,6.47 0 0 0 12.29,0 17,17 0 0 0 0.79,-5.68 17.77,17.77 0 0 0 -0.79,-5.67 5.93,5.93 0 0 0 -6.18,-4.39 z"
     id="path22" />
  <path
     class="cls-2"
     d="m 260.72204,237.31915 h 10.85 a 0.64,0.64 0 0 1 0.72,0.72 v 26.43 a 0.38,0.38 0 0 0 0.43,0.44 h 3.09 a 0.63,0.63 0 0 1 0.72,0.71 v 5.61 a 0.64,0.64 0 0 1 -0.72,0.72 h -15.09 a 0.64,0.64 0 0 1 -0.72,-0.72 v -5.61 a 0.63,0.63 0 0 1 0.72,-0.71 h 3.09 a 0.38,0.38 0 0 0 0.43,-0.44 v -19.68 a 0.38,0.38 0 0 0 -0.43,-0.43 h -3.09 a 0.64,0.64 0 0 1 -0.72,-0.72 v -5.6 a 0.64,0.64 0 0 1 0.72,-0.72 z m 4.24,-14.22 h 6.61 a 0.63,0.63 0 0 1 0.72,0.71 v 6.25 a 0.64,0.64 0 0 1 -0.72,0.72 h -6.61 a 0.64,0.64 0 0 1 -0.72,-0.72 v -6.25 a 0.63,0.63 0 0 1 0.72,-0.71 z"
     id="path24" />
  <path
     class="cls-2"
     d="m 294.71204,236.52915 q 7.83,0 11.1,2.8 3.27,2.8 3.27,9.27 v 15.87 a 0.39,0.39 0 0 0 0.43,0.44 h 3.09 a 0.63,0.63 0 0 1 0.72,0.71 v 5.61 a 0.64,0.64 0 0 1 -0.72,0.72 h -10.28 a 0.64,0.64 0 0 1 -0.72,-0.72 v -2.52 h -0.07 q -2.81,4 -9.63,4 a 12.47,12.47 0 0 1 -8.29,-2.73 q -3.27,-2.73 -3.27,-7.91 c 0,-3.68 1.21,-6.45 3.62,-8.29 2.41,-1.84 5.81,-2.77 10.17,-2.77 h 6.9 a 0.38,0.38 0 0 0 0.43,-0.43 v -1.33 q 0,-3.17 -1.55,-4.6 -1.55,-1.43 -5.59,-1.44 a 16.39,16.39 0 0 0 -3.74,0.43 0.45,0.45 0 0 0 -0.36,0.51 v 3.08 a 0.64,0.64 0 0 1 -0.72,0.72 h -6.18 a 0.64,0.64 0 0 1 -0.72,-0.72 v -7.28 a 1,1 0 0 1 0.58,-0.94 26.54,26.54 0 0 1 11.53,-2.48 z m 6.33,20.55 h -5.61 q -7.4,0 -7.4,4.74 c 0,2.92 2,4.38 5.89,4.38 q 7.54,0 7.55,-5.89 v -2.8 a 0.38,0.38 0 0 0 -0.43,-0.43 z"
     id="path26" />
  <path
     class="cls-2"
     d="m 154.24204,284.64915 h 38.59 a 0.63,0.63 0 0 1 0.71,0.71 v 11.48 a 0.63,0.63 0 0 1 -0.71,0.72 h -6.17 a 0.64,0.64 0 0 1 -0.72,-0.72 v -4.3 a 0.38,0.38 0 0 0 -0.43,-0.43 h -7.31 a 0.38,0.38 0 0 0 -0.43,0.43 v 33.41 a 0.38,0.38 0 0 0 0.43,0.43 h 3.73 a 0.63,0.63 0 0 1 0.71,0.71 v 5.6 a 0.63,0.63 0 0 1 -0.71,0.71 h -16.79 a 0.63,0.63 0 0 1 -0.71,-0.71 v -5.6 a 0.63,0.63 0 0 1 0.71,-0.71 h 3.73 a 0.38,0.38 0 0 0 0.45,-0.43 v -33.41 a 0.38,0.38 0 0 0 -0.43,-0.43 h -7.31 a 0.38,0.38 0 0 0 -0.43,0.43 v 4.3 a 0.64,0.64 0 0 1 -0.72,0.72 h -6.17 a 0.63,0.63 0 0 1 -0.71,-0.72 v -11.48 a 0.63,0.63 0 0 1 0.69,-0.71 z"
     id="path28" />
  <path
     class="cls-2"
     d="m 205.49204,298.05915 a 15.71,15.71 0 0 1 9,2.54 13.12,13.12 0 0 1 5.16,7 35.35,35.35 0 0 1 1.19,10.35 c 0,0.48 -0.26,0.72 -0.79,0.72 h -21.3 a 0.38,0.38 0 0 0 -0.43,0.43 7.8,7.8 0 0 0 0.5,2.66 q 1.8,5.23 7.75,5.23 a 10.43,10.43 0 0 0 8.1,-3.3 c 0.38,-0.38 0.74,-0.43 1.08,-0.14 l 4.23,3.73 a 0.65,0.65 0 0 1 0.07,1 q -5,5.88 -14.2,5.88 a 16.15,16.15 0 0 1 -9.22,-2.54 13,13 0 0 1 -5.19,-7.07 27.35,27.35 0 0 1 -1.22,-8.46 28.28,28.28 0 0 1 1.14,-8.53 12.82,12.82 0 0 1 5.2,-7 15.76,15.76 0 0 1 8.93,-2.5 z m 0.07,6.81 c -3.53,0 -5.81,1.48 -6.81,4.45 a 9.19,9.19 0 0 0 -0.43,2.94 0.38,0.38 0 0 0 0.43,0.43 h 13.57 a 0.38,0.38 0 0 0 0.43,-0.43 9.47,9.47 0 0 0 -0.43,-2.94 6.18,6.18 0 0 0 -2.52,-3.26 7.47,7.47 0 0 0 -4.24,-1.19 z"
     id="path30" />
  <path
     class="cls-2"
     d="m 241.67204,298.05915 a 23.62,23.62 0 0 1 11.9,2.72 1,1 0 0 1 0.57,0.94 v 7.88 a 0.63,0.63 0 0 1 -0.71,0.72 h -6.11 a 0.64,0.64 0 0 1 -0.72,-0.72 v -3.15 a 0.59,0.59 0 0 0 -0.35,-0.5 10.21,10.21 0 0 0 -4.38,-0.72 c -3.73,0 -6.09,1.51 -7.1,4.52 a 21.32,21.32 0 0 0 -0.72,6.38 21.74,21.74 0 0 0 0.72,6.46 c 1,3 3.37,4.44 7.1,4.44 a 10.63,10.63 0 0 0 4.38,-0.64 0.51,0.51 0 0 0 0.35,-0.51 v -3.22 a 0.64,0.64 0 0 1 0.72,-0.71 h 6.1 a 0.63,0.63 0 0 1 0.71,0.72 v 8 a 1,1 0 0 1 -0.57,0.93 25.37,25.37 0 0 1 -11.9,2.65 q -11.7,0 -14.71,-9.32 a 28.83,28.83 0 0 1 -1.07,-8.75 27.89,27.89 0 0 1 1.07,-8.53 12.94,12.94 0 0 1 5.35,-7.07 16.87,16.87 0 0 1 9.37,-2.52 z"
     id="path32" />
  <path
     class="cls-2"
     d="m 260.67204,284.64915 h 10.83 a 0.63,0.63 0 0 1 0.71,0.71 v 16.71 h 0.11 q 2.79,-4 9,-4 a 11.1,11.1 0 0 1 8.64,3.58 13.22,13.22 0 0 1 3.26,9.26 v 15.04 a 0.39,0.39 0 0 0 0.44,0.43 h 2.94 a 0.63,0.63 0 0 1 0.71,0.71 v 5.6 a 0.63,0.63 0 0 1 -0.71,0.71 h -14.99 a 0.63,0.63 0 0 1 -0.72,-0.71 v -5.6 a 0.63,0.63 0 0 1 0.72,-0.71 h 3.08 a 0.38,0.38 0 0 0 0.43,-0.43 v -13.2 a 8.5,8.5 0 0 0 -1.65,-5.49 6.63,6.63 0 0 0 -9.57,0 8.34,8.34 0 0 0 -1.69,5.49 v 13.2 a 0.39,0.39 0 0 0 0.43,0.43 h 3.09 a 0.63,0.63 0 0 1 0.71,0.71 v 5.6 a 0.63,0.63 0 0 1 -0.71,0.71 h -15.06 a 0.63,0.63 0 0 1 -0.72,-0.71 v -5.6 a 0.63,0.63 0 0 1 0.72,-0.71 h 3.08 a 0.38,0.38 0 0 0 0.43,-0.43 v -33.84 a 0.38,0.38 0 0 0 -0.43,-0.43 h -3.08 a 0.64,0.64 0 0 1 -0.72,-0.72 v -5.6 a 0.63,0.63 0 0 1 0.72,-0.71 z"
     id="path34" />
  <path
     class="cls-2"
     d="m 305.86204,326.38915 v 0 a 3.51,3.51 0 1 0 3.46,3.5 3.47,3.47 0 0 0 -3.48,-3.5 z m 0,6.48 a 3,3 0 0 1 0,-5.94 v 0 a 2.89,2.89 0 0 1 2.8,3 2.86,2.86 0 0 1 -2.8,2.94 z"
     id="path36" />
  <path
     class="cls-2"
     d="m 306.48204,330.01915 v 0 a 1,1 0 0 0 0.76,-1 0.91,0.91 0 0 0 -0.36,-0.81 2,2 0 0 0 -1.21,-0.3 8,8 0 0 0 -1.11,0.09 v 3.95 h 0.63 v -1.7 h 0.43 a 0.73,0.73 0 0 1 0.84,0.69 2.69,2.69 0 0 0 0.27,1 h 0.65 a 3.37,3.37 0 0 1 -0.25,-1 c -0.08,-0.55 -0.31,-0.86 -0.65,-0.92 z m -0.84,-0.25 h -0.45 v -1.33 a 3.79,3.79 0 0 1 0.45,0 c 0.7,0 0.95,0.35 0.95,0.69 0,0.34 -0.44,0.64 -0.95,0.64 z"
     id="path38" />
</svg>
