<?xml version="1.0" encoding="UTF-8" standalone="no"?>
<svg
   width="450"
   height="450"
   viewBox="0 0 450 450"
   version="1.1"
   id="svg2"
   sodipodi:docname="trace.svg"
   inkscape:version="1.3.2 (091e20e, 2023-11-25)"
   xmlns:inkscape="http://www.inkscape.org/namespaces/inkscape"
   xmlns:sodipodi="http://sodipodi.sourceforge.net/DTD/sodipodi-0.dtd"
   xmlns="http://www.w3.org/2000/svg"
   xmlns:svg="http://www.w3.org/2000/svg">
  <defs
     id="defs2">
    <inkscape:path-effect
       effect="fillet_chamfer"
       id="path-effect2"
       is_visible="true"
       lpeversion="1"
       nodesatellites_param="F,0,0,1,0,0,0,1 @ F,0,0,1,0,125.81539,0,1 @ F,0,0,1,0,0,0,1 @ F,0,0,1,0,124.19088,0,1 @ F,0,0,1,0,0,0,1 @ F,0,0,1,0,135.88336,0,1 @ F,0,0,1,0,0,0,1 @ F,0,0,1,0,132.0698,0,1 @ F,0,0,1,0,0,0,1 | F,0,0,1,0,0,0,1 @ F,0,0,1,0,0,0,1 @ F,0,0,1,0,0,0,1 @ F,0,0,1,0,0,0,1 | F,0,0,1,0,0,0,1 @ F,0,0,1,0,0,0,1 @ F,0,0,1,0,0,0,1 @ F,0,0,1,0,0,0,1 @ F,0,0,1,0,0,0,1 @ F,0,0,1,0,0,0,1 @ F,0,0,1,0,0,0,1 @ F,0,0,1,0,0,0,1 @ F,0,0,1,0,0,0,1 @ F,0,0,1,0,0,0,1 @ F,0,0,1,0,0,0,1 @ F,0,0,1,0,0,0,1 @ F,0,0,1,0,0,0,1 @ F,0,0,1,0,0,0,1 @ F,0,0,1,0,0,0,1 @ F,0,0,1,0,0,0,1 @ F,0,0,1,0,0,0,1 @ F,0,0,1,0,0,0,1 @ F,0,0,1,0,0,0,1 @ F,0,0,1,0,0,0,1 @ F,0,0,1,0,0,0,1 @ F,0,0,1,0,0,0,1 @ F,0,0,1,0,0,0,1 @ F,0,0,1,0,0,0,1 @ F,0,0,1,0,0,0,1 @ F,0,0,1,0,0,0,1 @ F,0,0,1,0,0,0,1 @ F,0,0,1,0,0,0,1 @ F,0,0,1,0,0,0,1 @ F,0,0,1,0,0,0,1 @ F,0,0,1,0,0,0,1 @ F,0,0,1,0,0,0,1 @ F,0,0,1,0,0,0,1 @ F,0,0,1,0,0,0,1 @ F,0,0,1,0,0,0,1 @ F,0,0,1,0,0,0,1 @ F,0,0,1,0,0,0,1 @ F,0,0,1,0,0,0,1 @ F,0,0,1,0,0,0,1 @ F,0,0,1,0,0,0,1 @ F,0,0,1,0,0,0,1 @ F,0,0,1,0,0,0,1 @ F,0,0,1,0,0,0,1 @ F,0,0,1,0,0,0,1 @ F,0,0,1,0,0,0,1 @ F,0,0,1,0,0,0,1 @ F,0,0,1,0,0,0,1 @ F,0,0,1,0,0,0,1 @ F,0,0,1,0,0,0,1 @ F,0,0,1,0,0,0,1 @ F,0,0,1,0,0,0,1 @ F,0,0,1,0,0,0,1 @ F,0,0,1,0,0,0,1 @ F,0,0,1,0,0,0,1 @ F,0,0,1,0,0,0,1 @ F,0,0,1,0,0,0,1 @ F,0,0,1,0,0,0,1 @ F,0,0,1,0,0,0,1 @ F,0,0,1,0,0,0,1 @ F,0,0,1,0,0,0,1 @ F,0,0,1,0,0,0,1 @ F,0,0,1,0,0,0,1 @ F,0,0,1,0,0,0,1 | F,0,0,1,0,0,0,1 @ F,0,0,1,0,0,0,1 @ F,0,0,1,0,0,0,1 @ F,0,0,1,0,0,0,1"
       radius="0"
       unit="px"
       method="auto"
       mode="F"
       chamfer_steps="1"
       flexible="false"
       use_knot_distance="true"
       apply_no_radius="true"
       apply_with_radius="true"
       only_selected="false"
       hide_knots="false" />
  </defs>
  <sodipodi:namedview
     id="namedview2"
     pagecolor="#ffffff"
     bordercolor="#000000"
     borderopacity="0.25"
     inkscape:showpageshadow="2"
     inkscape:pageopacity="0.0"
     inkscape:pagecheckerboard="0"
     inkscape:deskcolor="#d1d1d1"
     inkscape:zoom="0.27986843"
     inkscape:cx="60.742828"
     inkscape:cy="-16.078984"
     inkscape:window-width="1512"
     inkscape:window-height="916"
     inkscape:window-x="0"
     inkscape:window-y="38"
     inkscape:window-maximized="0"
     inkscape:current-layer="svg2" />
  <path
     d="M 153.399 129.391 C 118.883 135.031, 90.418 155.155, 76.863 183.500 C 59.451 219.912, 75.481 260.554, 114.936 280.026 C 136.139 290.490, 157.492 293.223, 185.500 289.057 C 199.313 287.003, 212.249 283.604, 222.209 279.412 C 228.371 276.818, 229.940 277.088, 229.985 280.750 C 229.996 281.697, 233.875 282, 246 282 L 262 282 262 253.667 C 262 238.083, 262.193 225.140, 262.429 224.904 C 262.666 224.668, 264.922 224.638, 267.443 224.839 L 272.027 225.204 271.763 258.352 L 271.500 291.500 263.724 291.793 L 255.947 292.085 256.224 306.793 L 256.500 321.500 286 321.805 C 302.225 321.972, 318.762 321.821, 322.750 321.469 L 330 320.829 330 306.415 L 330 292 324.750 291.815 C 321.863 291.714, 318.375 291.585, 317 291.530 L 314.500 291.428 314.237 258.214 L 313.973 225 332.844 225 L 351.715 225 352.351 231.085 C 352.701 234.432, 353.242 237.582, 353.553 238.085 C 353.864 238.588, 359.941 239, 367.059 239 L 380 239 380 215.067 C 380 191.839, 379.940 191.116, 377.955 190.486 C 375.558 189.725, 205.996 189.937, 198.232 190.710 L 192.964 191.235 193.232 214.867 L 193.500 238.500 206.486 238.500 C 218.701 238.500, 219.491 238.381, 219.788 236.500 C 219.961 235.400, 220.547 232.210, 221.089 229.411 C 222.056 224.422, 222.148 224.318, 225.788 224.177 C 230.395 223.999, 233 224.772, 232.999 226.317 C 232.999 226.968, 231.643 230.365, 229.987 233.866 C 220.587 253.735, 194.624 264.939, 168 260.614 C 144.710 256.831, 128.763 247.130, 120.881 231.949 C 117.681 225.785, 117.532 225.013, 117.519 214.500 C 117.505 202.853, 118.524 198.793, 123.924 189 C 131.674 174.944, 151.250 163.854, 171.015 162.322 C 187.659 161.032, 209.666 168.003, 223.388 178.910 L 227.275 182 242.654 182 L 258.033 182 257.766 155.250 L 257.500 128.500 242.500 128.500 L 227.500 128.500 227.207 136.319 C 227.045 140.619, 226.595 143.979, 226.207 143.785 C 211.267 136.327, 198.609 131.926, 186.648 130.032 C 175.583 128.280, 161.822 128.015, 153.399 129.391 M 338.609 311.823 C 338.330 312.276, 339.608 312.613, 341.451 312.573 C 343.294 312.533, 344.594 312.163, 344.342 311.750 C 343.721 310.737, 339.246 310.794, 338.609 311.823"
     stroke="none"
     fill="#fbfbfa"
     fill-rule="evenodd"
     id="path1" />
  <path
     d="m 0,225.002 v 99.18661 A 125.67471,125.67471 44.96795 0 0 125.81531,449.86324 L 225.25,449.752 326.3092,449.63894 A 124.46938,124.46938 135.00007 0 0 450.63925,325.3092 L 450.752,224.75 l 0.0996,-88.86673 A 135.73109,135.73109 45.032121 0 0 315.12064,0 H 225.502 132.0698 A 132.0698,132.0698 135 0 0 0,132.0698 v 92.9322 m 0.491,0.498 c 0,123.75 0.117,174.226 0.259,112.17 0.142,-62.057 0.142,-163.307 0,-225 C 0.608,50.976 0.491,101.75 0.491,225.5 m 152.908,-96.109 c -34.516,5.64 -62.981,25.764 -76.536,54.109 -17.412,36.412 -1.382,77.054 38.073,96.526 21.203,10.464 42.556,13.197 70.564,9.031 13.813,-2.054 26.749,-5.453 36.709,-9.645 6.162,-2.594 7.731,-2.324 7.776,1.338 0.011,0.947 3.89,1.25 16.015,1.25 h 16 v -28.333 c 0,-15.584 0.193,-28.527 0.429,-28.763 0.237,-0.236 2.493,-0.266 5.014,-0.065 l 4.584,0.365 -0.264,33.148 -0.263,33.148 -7.776,0.293 -7.777,0.292 0.277,14.708 0.276,14.707 29.5,0.305 c 16.225,0.167 32.762,0.016 36.75,-0.336 l 7.25,-0.64 V 306.415 292 l -5.25,-0.185 c -2.887,-0.101 -6.375,-0.23 -7.75,-0.285 l -2.5,-0.102 -0.263,-33.214 L 313.973,225 h 18.871 18.871 l 0.636,6.085 c 0.35,3.347 0.891,6.497 1.202,7 0.311,0.503 6.388,0.915 13.506,0.915 H 380 v -23.933 c 0,-23.228 -0.06,-23.951 -2.045,-24.581 -2.397,-0.761 -171.959,-0.549 -179.723,0.224 l -5.268,0.525 0.268,23.632 0.268,23.633 h 12.986 c 12.215,0 13.005,-0.119 13.302,-2 0.173,-1.1 0.759,-4.29 1.301,-7.089 0.967,-4.989 1.059,-5.093 4.699,-5.234 4.607,-0.178 7.212,0.595 7.211,2.14 0,0.651 -1.356,4.048 -3.012,7.549 -9.4,19.869 -35.363,31.073 -61.987,26.748 -23.29,-3.783 -39.237,-13.484 -47.119,-28.665 -3.2,-6.164 -3.349,-6.936 -3.362,-17.449 -0.014,-11.647 1.005,-15.707 6.405,-25.5 7.75,-14.056 27.326,-25.146 47.091,-26.678 16.644,-1.29 38.651,5.681 52.373,16.588 l 3.887,3.09 h 15.379 15.379 L 257.766,155.25 257.5,128.5 h -15 -15 l -0.293,7.819 c -0.162,4.3 -0.612,7.66 -1,7.466 -14.94,-7.458 -27.598,-11.859 -39.559,-13.753 -11.065,-1.752 -24.826,-2.017 -33.249,-0.641 m 185.21,182.432 c -0.279,0.453 0.999,0.79 2.842,0.75 1.843,-0.04 3.143,-0.41 2.891,-0.823 -0.621,-1.013 -5.096,-0.956 -5.733,0.073"
     stroke="none"
     fill="#9b8c53"
     fill-rule="evenodd"
     id="path2"
     inkscape:path-effect="#path-effect2"
     inkscape:original-d="M 0 225.002 L 0 450.004 225.250 449.752 L 450.500 449.500 450.752 224.750 L 451.004 0 225.502 0 L 0 0 0 225.002 M 0.491 225.500 C 0.491 349.250, 0.608 399.726, 0.750 337.670 C 0.892 275.613, 0.892 174.363, 0.750 112.670 C 0.608 50.976, 0.491 101.750, 0.491 225.500 M 153.399 129.391 C 118.883 135.031, 90.418 155.155, 76.863 183.500 C 59.451 219.912, 75.481 260.554, 114.936 280.026 C 136.139 290.490, 157.492 293.223, 185.500 289.057 C 199.313 287.003, 212.249 283.604, 222.209 279.412 C 228.371 276.818, 229.940 277.088, 229.985 280.750 C 229.996 281.697, 233.875 282, 246 282 L 262 282 262 253.667 C 262 238.083, 262.193 225.140, 262.429 224.904 C 262.666 224.668, 264.922 224.638, 267.443 224.839 L 272.027 225.204 271.763 258.352 L 271.500 291.500 263.724 291.793 L 255.947 292.085 256.224 306.793 L 256.500 321.500 286 321.805 C 302.225 321.972, 318.762 321.821, 322.750 321.469 L 330 320.829 330 306.415 L 330 292 324.750 291.815 C 321.863 291.714, 318.375 291.585, 317 291.530 L 314.500 291.428 314.237 258.214 L 313.973 225 332.844 225 L 351.715 225 352.351 231.085 C 352.701 234.432, 353.242 237.582, 353.553 238.085 C 353.864 238.588, 359.941 239, 367.059 239 L 380 239 380 215.067 C 380 191.839, 379.940 191.116, 377.955 190.486 C 375.558 189.725, 205.996 189.937, 198.232 190.710 L 192.964 191.235 193.232 214.867 L 193.500 238.500 206.486 238.500 C 218.701 238.500, 219.491 238.381, 219.788 236.500 C 219.961 235.400, 220.547 232.210, 221.089 229.411 C 222.056 224.422, 222.148 224.318, 225.788 224.177 C 230.395 223.999, 233 224.772, 232.999 226.317 C 232.999 226.968, 231.643 230.365, 229.987 233.866 C 220.587 253.735, 194.624 264.939, 168 260.614 C 144.710 256.831, 128.763 247.130, 120.881 231.949 C 117.681 225.785, 117.532 225.013, 117.519 214.500 C 117.505 202.853, 118.524 198.793, 123.924 189 C 131.674 174.944, 151.250 163.854, 171.015 162.322 C 187.659 161.032, 209.666 168.003, 223.388 178.910 L 227.275 182 242.654 182 L 258.033 182 257.766 155.250 L 257.500 128.500 242.500 128.500 L 227.500 128.500 227.207 136.319 C 227.045 140.619, 226.595 143.979, 226.207 143.785 C 211.267 136.327, 198.609 131.926, 186.648 130.032 C 175.583 128.280, 161.822 128.015, 153.399 129.391 M 338.609 311.823 C 338.330 312.276, 339.608 312.613, 341.451 312.573 C 343.294 312.533, 344.594 312.163, 344.342 311.750 C 343.721 310.737, 339.246 310.794, 338.609 311.823" />
</svg>
