<?xml version="1.0" encoding="UTF-8"?>
<!DOCTYPE svg PUBLIC "-//W3C//DTD SVG 1.1//EN" "http://www.w3.org/Graphics/SVG/1.1/DTD/svg11.dtd">
<svg xmlns="http://www.w3.org/2000/svg" version="1.1" width="600px" height="600px" style="shape-rendering:geometricPrecision; text-rendering:geometricPrecision; image-rendering:optimizeQuality; fill-rule:evenodd; clip-rule:evenodd" xmlns:xlink="http://www.w3.org/1999/xlink">
<g><path style="opacity:1" fill="#65af04" d="M -0.5,-0.5 C 199.5,-0.5 399.5,-0.5 599.5,-0.5C 599.5,199.5 599.5,399.5 599.5,599.5C 399.5,599.5 199.5,599.5 -0.5,599.5C -0.5,399.5 -0.5,199.5 -0.5,-0.5 Z"/></g>
<g><path style="opacity:1" fill="#fefefe" d="M 256.5,297.5 C 290.795,297.595 323.462,290.095 354.5,275C 359.5,272 364.5,269 369.5,266C 370.687,264.981 371.687,263.814 372.5,262.5C 365,257.582 357.333,252.916 349.5,248.5C 335.388,260.433 320.055,270.6 303.5,279C 288.416,285.526 272.749,288.026 256.5,286.5C 256.5,282.833 256.5,279.167 256.5,275.5C 272.707,277.133 287.707,273.633 301.5,265C 315.695,255.808 328.362,244.808 339.5,232C 322.183,210.533 299.85,197.7 272.5,193.5C 267.36,192.512 262.026,192.179 256.5,192.5C 256.5,186.5 256.5,180.5 256.5,174.5C 300.5,174.5 344.5,174.5 388.5,174.5C 388.5,220.833 388.5,267.167 388.5,313.5C 344.5,313.5 300.5,313.5 256.5,313.5C 256.5,308.167 256.5,302.833 256.5,297.5 Z"/></g>
<g><path style="opacity:1" fill="#fdfefb" d="M 256.5,193.5 C 256.817,196.572 256.484,199.572 255.5,202.5C 233.722,205.471 215.555,215.138 201,231.5C 200.362,232.609 199.862,233.775 199.5,235C 207.161,256.654 221.161,272.654 241.5,283C 246.329,284.958 251.329,286.124 256.5,286.5C 256.5,290.167 256.5,293.833 256.5,297.5C 225.318,292.823 201.818,276.823 186,249.5C 183.082,244.166 180.582,238.666 178.5,233C 180.42,230.073 182.753,227.406 185.5,225C 200.646,213.09 217.313,203.757 235.5,197C 242.301,194.606 249.301,193.44 256.5,193.5 Z"/></g>
<g><path style="opacity:1" fill="#67af0f" d="M 256.5,193.5 C 261.833,193.5 267.167,193.5 272.5,193.5C 299.85,197.7 322.183,210.533 339.5,232C 328.362,244.808 315.695,255.808 301.5,265C 287.707,273.633 272.707,277.133 256.5,275.5C 256.5,279.167 256.5,282.833 256.5,286.5C 251.329,286.124 246.329,284.958 241.5,283C 221.161,272.654 207.161,256.654 199.5,235C 199.862,233.775 200.362,232.609 201,231.5C 215.555,215.138 233.722,205.471 255.5,202.5C 256.484,199.572 256.817,196.572 256.5,193.5 Z"/></g>
<g><path style="opacity:1" fill="#fdfefc" d="M 256.5,226.5 C 263.881,227.108 269.714,230.441 274,236.5C 276.084,240.336 278.417,244.003 281,247.5C 286.78,242.372 292.614,237.372 298.5,232.5C 287.481,219.663 273.481,213.996 256.5,215.5C 256.5,211.5 256.5,207.5 256.5,203.5C 281.568,203.201 301.901,212.867 317.5,232.5C 309.273,243.228 299.607,252.395 288.5,260C 278.487,265.77 267.821,267.603 256.5,265.5C 256.5,268.5 256.5,271.5 256.5,274.5C 244.013,272.504 233.846,266.504 226,256.5C 221.72,250.275 218.22,243.609 215.5,236.5C 226.374,224.23 240.041,217.563 256.5,216.5C 256.5,219.833 256.5,223.167 256.5,226.5 Z"/></g>
<g><path style="opacity:1" fill="#66af0c" d="M 256.5,226.5 C 256.5,239.167 256.5,251.833 256.5,264.5C 250.845,262.918 246.012,259.918 242,255.5C 238.199,250.196 235.033,244.53 232.5,238.5C 238.327,230.253 246.327,226.253 256.5,226.5 Z"/></g>
<g><path style="opacity:1" fill="#67af0f" d="M 256.5,297.5 C 256.5,293.833 256.5,290.167 256.5,286.5C 272.749,288.026 288.416,285.526 303.5,279C 320.055,270.6 335.388,260.433 349.5,248.5C 357.333,252.916 365,257.582 372.5,262.5C 371.687,263.814 370.687,264.981 369.5,266C 364.5,269 359.5,272 354.5,275C 323.462,290.095 290.795,297.595 256.5,297.5 Z"/></g>
<g><path style="opacity:1" fill="#fdfefb" d="M 159.5,339.5 C 171.505,339.333 183.505,339.5 195.5,340C 205.432,341.6 210.932,347.433 212,357.5C 212.5,368.828 212.667,380.162 212.5,391.5C 207.5,391.5 202.5,391.5 197.5,391.5C 197.936,379.757 197.436,368.09 196,356.5C 194.457,354.622 192.624,353.122 190.5,352C 185.177,351.501 179.844,351.334 174.5,351.5C 174.5,364.833 174.5,378.167 174.5,391.5C 169.5,391.5 164.5,391.5 159.5,391.5C 159.5,374.167 159.5,356.833 159.5,339.5 Z"/></g>
<g><path style="opacity:1" fill="#fdfefc" d="M 214.5,340.5 C 219.901,339.175 225.401,339.175 231,340.5C 234.534,353.6 238.367,366.6 242.5,379.5C 246.498,366.505 250.498,353.505 254.5,340.5C 259.5,339.167 264.5,339.167 269.5,340.5C 264.061,357.429 258.394,374.262 252.5,391C 245.476,391.831 238.476,391.664 231.5,390.5C 226.123,373.622 220.456,356.955 214.5,340.5 Z"/></g>
<g><path style="opacity:1" fill="#fefffe" d="M 276.5,339.5 C 281.167,339.5 285.833,339.5 290.5,339.5C 290.5,356.833 290.5,374.167 290.5,391.5C 285.833,391.5 281.167,391.5 276.5,391.5C 276.5,374.167 276.5,356.833 276.5,339.5 Z"/></g>
<g><path style="opacity:1" fill="#fefefd" d="M 300.5,339.5 C 311.505,339.333 322.505,339.5 333.5,340C 345.749,343.974 351.416,352.474 350.5,365.5C 351.7,375.435 348.367,383.268 340.5,389C 337.899,389.92 335.232,390.587 332.5,391C 321.839,391.5 311.172,391.667 300.5,391.5C 300.5,374.167 300.5,356.833 300.5,339.5 Z"/></g>
<g><path style="opacity:1" fill="#fefffe" d="M 372.5,339.5 C 372.5,356.833 372.5,374.167 372.5,391.5C 367.833,391.5 363.167,391.5 358.5,391.5C 358.5,374.167 358.5,356.833 358.5,339.5C 363.167,339.5 367.833,339.5 372.5,339.5 Z"/></g>
<g><path style="opacity:1" fill="#fdfefc" d="M 399.5,339.5 C 406.422,339.188 413.256,339.521 420,340.5C 426.608,357.496 433.108,374.496 439.5,391.5C 434.489,391.666 429.489,391.499 424.5,391C 423.407,388.557 422.407,386.057 421.5,383.5C 413.187,382.335 404.853,382.168 396.5,383C 395.407,385.443 394.407,387.943 393.5,390.5C 388.88,391.493 384.214,391.827 379.5,391.5C 385.608,373.951 392.274,356.618 399.5,339.5 Z"/></g>
<g><path style="opacity:1" fill="#d0e8a8" d="M 372.5,339.5 C 367.833,339.5 363.167,339.5 358.5,339.5C 358.5,356.833 358.5,374.167 358.5,391.5C 357.503,374.008 357.17,356.341 357.5,338.5C 362.695,338.179 367.695,338.513 372.5,339.5 Z"/></g>
<g><path style="opacity:1" fill="#68b011" d="M 314.5,350.5 C 332.546,348.373 339.379,356.04 335,373.5C 333.332,377.165 330.499,379.332 326.5,380C 322.514,380.499 318.514,380.666 314.5,380.5C 314.5,370.5 314.5,360.5 314.5,350.5 Z"/></g>
<g><path style="opacity:1" fill="#6ab116" d="M 408.5,349.5 C 412.567,356.99 415.567,364.99 417.5,373.5C 411.833,373.5 406.167,373.5 400.5,373.5C 402.59,365.317 405.257,357.317 408.5,349.5 Z"/></g>
<g><path style="opacity:1" fill="#e9f4d5" d="M 446.5,384.5 C 443.833,387.167 443.833,389.833 446.5,392.5C 444.11,392.315 443.11,390.982 443.5,388.5C 443.11,386.018 444.11,384.685 446.5,384.5 Z"/></g>
<g><path style="opacity:1" fill="#e6f2d1" d="M 450.5,385.5 C 452.597,386.879 452.93,388.545 451.5,390.5C 451.371,388.784 451.038,387.117 450.5,385.5 Z"/></g>
<g><path style="opacity:1" fill="#a2cf65" d="M 450.5,385.5 C 451.038,387.117 451.371,388.784 451.5,390.5C 450.491,393.166 448.824,393.833 446.5,392.5C 443.833,389.833 443.833,387.167 446.5,384.5C 448.128,383.147 449.462,383.481 450.5,385.5 Z"/></g>
<g><path style="opacity:1" fill="#eff7e2" d="M 446.5,386.5 C 447.5,386.5 448.5,386.5 449.5,386.5C 449.657,387.873 449.49,389.207 449,390.5C 448.333,389.167 447.667,389.167 447,390.5C 446.51,389.207 446.343,387.873 446.5,386.5 Z"/></g>
</svg>
