<?xml version="1.0" encoding="UTF-8" standalone="no"?>
<svg
   version="1.0"
   width="180pt"
   height="180pt"
   viewBox="0 0 180 180"
   preserveAspectRatio="xMidYMid"
   id="svg1306"
   sodipodi:docname="scortex-logo.svg"
   inkscape:version="1.2.1 (9c6d41e, 2022-07-14)"
   inkscape:export-filename="scortex-logo.svg"
   inkscape:export-xdpi="96"
   inkscape:export-ydpi="96"
   xmlns:inkscape="http://www.inkscape.org/namespaces/inkscape"
   xmlns:sodipodi="http://sodipodi.sourceforge.net/DTD/sodipodi-0.dtd"
   xmlns="http://www.w3.org/2000/svg"
   xmlns:svg="http://www.w3.org/2000/svg">
  <defs
     id="defs1310" />
  <sodipodi:namedview
     id="namedview1308"
     pagecolor="#ffffff"
     bordercolor="#000000"
     borderopacity="0.25"
     inkscape:showpageshadow="2"
     inkscape:pageopacity="0.0"
     inkscape:pagecheckerboard="0"
     inkscape:deskcolor="#d1d1d1"
     inkscape:document-units="pt"
     showgrid="false"
     inkscape:zoom="0.68127165"
     inkscape:cx="-74.126085"
     inkscape:cy="274.48669"
     inkscape:window-width="1512"
     inkscape:window-height="916"
     inkscape:window-x="0"
     inkscape:window-y="278"
     inkscape:window-maximized="0"
     inkscape:current-layer="svg1306" />
  <g
     transform="matrix(0.1,0,0,-0.1,0,180)"
     fill="#000000"
     stroke="none"
     id="g1304">
    <path
       d="m 643,1237 -62,-112 36,-65 c 20,-36 48,-86 62,-112 l 26,-48 -26,-47 C 665,826 637,775 617,739 l -37,-65 57,-100 c 30,-54 59,-103 63,-107 5,-5 20,13 35,40 16,26 47,80 70,118 23,39 68,116 99,173 l 58,102 -55,98 c -84,147 -94,132 87,132 h 157 l -12,23 c -6,12 -34,61 -62,109 l -52,88 H 865 l -160,-1 z"
       id="path1300" />
    <path
       d="m 850,664 c 0,-4 26,-53 58,-110 l 57,-103 128,-1 h 129 l -27,48 c -15,26 -43,75 -62,110 l -35,62 H 974 c -68,0 -124,-3 -124,-6 z"
       id="path1302" />
  </g>
  <rect
     style="fill:#ffffff;stroke-width:0.75"
     id="rect1312"
     width="179.99998"
     height="179.23729"
     x="0.76271182"
     y="0.76271498"
     ry="23.512787" />
  <g
     transform="matrix(0.1,0,0,-0.1,1.5,180)"
     fill="#000000"
     stroke="none"
     id="g1422">
    <path
       d="m 643,1237 -62,-112 36,-65 c 20,-36 48,-86 62,-112 l 26,-48 -26,-47 C 665,826 637,775 617,739 l -37,-65 57,-100 c 30,-54 59,-103 63,-107 5,-5 20,13 35,40 16,26 47,80 70,118 23,39 68,116 99,173 l 58,102 -55,98 c -84,147 -94,132 87,132 h 157 l -12,23 c -6,12 -34,61 -62,109 l -52,88 H 865 l -160,-1 z"
       id="path1418" />
    <path
       d="m 850,664 c 0,-4 26,-53 58,-110 l 57,-103 128,-1 h 129 l -27,48 c -15,26 -43,75 -62,110 l -35,62 H 974 c -68,0 -124,-3 -124,-6 z"
       id="path1420" />
  </g>
</svg>
