<?xml version="1.0" standalone="no"?>
<!DOCTYPE svg PUBLIC "-//W3C//DTD SVG 20010904//EN"
 "http://www.w3.org/TR/2001/REC-SVG-20010904/DTD/svg10.dtd">
<svg version="1.0" xmlns="http://www.w3.org/2000/svg"
 width="180.000000pt" height="180.000000pt" viewBox="0 0 180.000000 180.000000"
 preserveAspectRatio="xMidYMid meet">

<g transform="translate(0.000000,180.000000) scale(0.100000,-0.100000)"
fill="#000000" stroke="none">
<path d="M643 1237 l-62 -112 36 -65 c20 -36 48 -86 62 -112 l26 -48 -26 -47
c-14 -27 -42 -78 -62 -114 l-37 -65 57 -100 c30 -54 59 -103 63 -107 5 -5 20
13 35 40 16 26 47 80 70 118 23 39 68 116 99 173 l58 102 -55 98 c-84 147 -94
132 87 132 l157 0 -12 23 c-6 12 -34 61 -62 109 l-52 88 -160 0 -160 -1 -62
-112z"/>
<path d="M850 664 c0 -4 26 -53 58 -110 l57 -103 128 -1 129 0 -27 48 c-15 26
-43 75 -62 110 l-35 62 -124 0 c-68 0 -124 -3 -124 -6z"/>
</g>
</svg>
