<?xml version="1.0" encoding="UTF-8" standalone="no"?>
<svg
   xml:space="preserve"
   id="svg2"
   version="1.1"
   viewBox="0 -7.58 160.91999 160.92"
   width="160.92"
   height="160.92"
   xmlns="http://www.w3.org/2000/svg"
   xmlns:svg="http://www.w3.org/2000/svg"
   xmlns:rdf="http://www.w3.org/1999/02/22-rdf-syntax-ns#"
   xmlns:cc="http://creativecommons.org/ns#"
   xmlns:dc="http://purl.org/dc/elements/1.1/"><metadata
     id="metadata8"><rdf:RDF><cc:Work
         rdf:about=""><dc:format>image/svg+xml</dc:format><dc:type
           rdf:resource="http://purl.org/dc/dcmitype/StillImage" /></cc:Work></rdf:RDF></metadata><defs
     id="defs6" /><g
     transform="matrix(1.3333333,0,0,-1.3333333,-129.12182,129.3786)"
     id="g468"><g
       transform="scale(0.1)"
       id="g466"><path
         id="path458"
         style="fill:#fcd216;fill-opacity:1;fill-rule:nonzero;stroke:none;stroke-width:0.88898"
         d="M 1196.4663,346.30474 V 43.295551 h 800.8232 V 544.21964 C 1736.3648,498.6733 1599.8699,435.64514 1363.4641,310.86658 l -166.9978,35.43816" /><path
         id="path460"
         style="fill:#fcd216;fill-opacity:1;fill-rule:nonzero;stroke:none;stroke-width:0.88898"
         d="M 1997.2983,855.75284 H 1196.4751 V 499.51588 c 265.876,97.89326 549.2366,160.00452 800.8232,180.0812 v 176.15576" /><path
         id="path462"
         style="fill:#656263;fill-opacity:1;fill-rule:nonzero;stroke:none;stroke-width:0.88898"
         d="m 1997.2983,679.60334 c -251.5866,-20.08294 -534.9472,-82.1942 -800.8232,-180.0803 -50.5644,-18.6145 -100.5111,-38.48074 -149.4657,-59.63817 l 316.4547,-77.94553 c 255.9555,135.09716 415.0275,196.56464 721.4504,244.49364 v 78.52218 c -28.7023,-1.1891 -57.9607,-2.99781 -87.6162,-5.35182" /><rect
         style="fill:#ffffff;stroke-width:7.5"
         id="rect1927"
         width="1199.3167"
         height="1203.6307"
         x="970.67004"
         y="-1022.8754"
         transform="scale(1,-1)"
         ry="235.12787" /><path
         id="path1981"
         style="fill:#fcd216;fill-opacity:1;fill-rule:nonzero;stroke:none;stroke-width:0.88898"
         d="M 1196.4663,346.30474 V 43.295551 h 800.8232 V 544.21964 C 1736.3648,498.6733 1599.8699,435.64514 1363.4641,310.86658 l -166.9978,35.43816" /><path
         id="path1983"
         style="fill:#fcd216;fill-opacity:1;fill-rule:nonzero;stroke:none;stroke-width:0.88898"
         d="M 1997.2983,855.75284 H 1196.4751 V 499.51588 c 265.876,97.89326 549.2366,160.00452 800.8232,180.0812 v 176.15576" /><path
         id="path1985"
         style="fill:#656263;fill-opacity:1;fill-rule:nonzero;stroke:none;stroke-width:0.88898"
         d="m 1997.2983,679.60334 c -251.5866,-20.08294 -534.9472,-82.1942 -800.8232,-180.0803 -50.5644,-18.6145 -100.5111,-38.48074 -149.4657,-59.63817 l 316.4547,-77.94553 c 255.9555,135.09716 415.0275,196.56464 721.4504,244.49364 v 78.52218 c -28.7023,-1.1891 -57.9607,-2.99781 -87.6162,-5.35182" /></g></g></svg>
